<svg width="20" height="20" viewBox="0 0 20 20" fill="none" xmlns="http://www.w3.org/2000/svg">
<path fill-rule="evenodd" clip-rule="evenodd" d="M9.99945 1.68324C10.6693 0.669075 11.8194 0 13.1257 0H13.8522C15.5187 0 16.8696 1.35095 16.8696 3.01744C16.8696 3.68827 16.6507 4.30798 16.2805 4.80902H19.3878C19.7259 4.80902 20 5.08313 20 5.42126V9.62941C20 9.96755 19.7259 10.2417 19.3878 10.2417H18.9668V19.3883C18.9668 19.7265 18.6926 20.0006 18.3545 20.0006H1.64431C1.30618 20.0006 1.03207 19.7265 1.03207 19.3883V10.2417H0.612243C0.274111 10.2417 0 9.96755 0 9.62941V5.42126C0 5.08313 0.274111 4.80902 0.612243 4.80902H3.71845C3.34817 4.30798 3.12926 3.68827 3.12926 3.01744C3.12926 1.35095 4.48021 0 6.1467 0H6.87318C8.17954 0 9.32962 0.669075 9.99945 1.68324ZM13.2978 10.2417H17.7423V18.7761H13.2978V10.2417ZM13.2978 9.01717H18.7755V6.0335H13.9443C13.9137 6.03442 13.883 6.03488 13.8522 6.03488H13.2978V9.01717ZM12.0733 6.03488V9.01717H7.92803V6.03488H9.99406H10.0049H12.0733ZM7.31578 4.80902H9.38181V3.74392C9.38181 3.68297 9.38327 3.62236 9.38615 3.56213C9.29299 2.25554 8.20349 1.22449 6.87318 1.22449H6.1467C5.15648 1.22449 4.35375 2.02722 4.35375 3.01744C4.35375 3.98389 5.1184 4.77175 6.07573 4.80902H7.31578ZM10.6171 4.80902V3.74392C10.6171 3.68297 10.6156 3.62236 10.6128 3.56213C10.7059 2.25554 11.7954 1.22449 13.1257 1.22449H13.8522C14.8424 1.22449 15.6452 2.02722 15.6452 3.01744C15.6452 3.98389 14.8805 4.77175 13.9232 4.80902H12.6856H10.6171ZM6.70354 6.03488V9.01717H1.22449V6.0335H6.05459C6.08518 6.03442 6.11589 6.03488 6.1467 6.03488H6.70354ZM6.70354 10.2417H2.25655V18.7761H6.70354V10.2417ZM7.92803 10.2417H12.0733V18.7742H7.92803V10.2417Z" fill="#727496"/>
</svg>
