<svg width="20" height="20" viewBox="0 0 20 20" fill="none" xmlns="http://www.w3.org/2000/svg">
<path fill-rule="evenodd" clip-rule="evenodd" d="M1.17647 10C1.17647 5.1269 5.1269 1.17647 10 1.17647C14.8731 1.17647 18.8235 5.1269 18.8235 10C18.8235 14.8731 14.8731 18.8235 10 18.8235C5.1269 18.8235 1.17647 14.8731 1.17647 10ZM10 0C4.47715 0 0 4.47715 0 10C0 15.5228 4.47715 20 10 20C15.5228 20 20 15.5228 20 10C20 4.47715 15.5228 0 10 0ZM8.44879 9.945L8.51132 12.4987H9.65251L9.69941 10.865C10.4394 10.865 11.0959 10.7539 11.6691 10.5319C12.2527 10.3098 12.7061 9.95557 13.0292 9.46916C13.3627 8.98274 13.5294 8.34829 13.5294 7.5658C13.5294 6.89963 13.3835 6.32333 13.0917 5.83692C12.7999 5.35051 12.3934 4.97512 11.8723 4.71077C11.3513 4.44641 10.752 4.31424 10.0746 4.31424C9.39717 4.31424 8.80313 4.44641 8.29247 4.71077C7.7818 4.97512 7.38056 5.34522 7.08875 5.82106C6.80736 6.2969 6.66667 6.85204 6.66667 7.4865H7.91728C7.91728 6.86262 8.11008 6.36563 8.49569 5.99553C8.8813 5.62544 9.4076 5.44039 10.0746 5.44039C10.7312 5.44039 11.2575 5.63072 11.6535 6.01139C12.0599 6.39207 12.2632 6.9102 12.2632 7.5658C12.2632 8.24255 12.1068 8.75011 11.7942 9.08849C11.4815 9.42686 11.0699 9.65421 10.5592 9.77052C10.059 9.88684 9.51702 9.945 8.9334 9.945H8.44879ZM8.41753 15.433C8.5947 15.6022 8.81355 15.6868 9.0741 15.6868C9.33464 15.6868 9.54829 15.6022 9.71504 15.433C9.88179 15.2532 9.96516 15.0365 9.96516 14.7827C9.96516 14.5289 9.88179 14.3174 9.71504 14.1482C9.54829 13.9685 9.33464 13.8786 9.0741 13.8786C8.81355 13.8786 8.5947 13.9685 8.41753 14.1482C8.25078 14.3174 8.1674 14.5289 8.1674 14.7827C8.1674 15.0365 8.25078 15.2532 8.41753 15.433Z" fill="#727496"/>
</svg>
