<svg width="87" height="64" viewBox="0 0 87 64" fill="none" xmlns="http://www.w3.org/2000/svg">
<path d="M23.3792 29.9672L54.2132 17.3992L53.6878 49.6477L23.3792 37.7667V29.9672Z" fill="#6F74E1"/>
<path d="M18.5336 28.7992C18.5336 27.2131 19.8193 25.9274 21.4054 25.9274C22.9914 25.9274 24.2771 27.2131 24.2771 28.7992V38.6544C24.2771 40.2405 22.9914 41.5262 21.4054 41.5262C19.8193 41.5262 18.5336 40.2405 18.5336 38.6544L18.5336 28.7992Z" fill="#242AAA"/>
<path d="M48.4353 20.6727C48.4353 18.2176 50.4255 16.2274 52.8806 16.2274C55.3356 16.2274 57.3258 18.2176 57.3258 20.6727V46.4553C57.3258 48.9103 55.3356 50.9005 52.8806 50.9005C50.4255 50.9005 48.4353 48.9103 48.4353 46.4553L48.4353 20.6727Z" fill="#242AAA"/>
<path fill-rule="evenodd" clip-rule="evenodd" d="M30.566 39.4611L44.7104 44.8094L44.3936 45.6474H45.2894C45.2894 49.0648 41.7959 51.3694 38.6542 50.0244L35.0304 48.4729C32.3222 47.3135 30.566 44.6512 30.566 41.7053V39.4611ZM43.4389 46.2441L32.3689 42.0583C32.5008 44.1449 33.7953 45.9951 35.7355 46.8258L39.3594 48.3773C41.1296 49.1351 43.0789 48.0352 43.4389 46.2441Z" fill="#6F74E1"/>
<path fill-rule="evenodd" clip-rule="evenodd" d="M59.7886 26.8966C59.7886 26.6492 59.9891 26.4487 60.2365 26.4487H65.4092C65.6566 26.4487 65.8571 26.6492 65.8571 26.8966C65.8571 27.144 65.6566 27.3445 65.4092 27.3445H60.2365C59.9891 27.3445 59.7886 27.144 59.7886 26.8966Z" fill="#45499E"/>
<path fill-rule="evenodd" clip-rule="evenodd" d="M59.7875 39.9897C59.7875 39.7423 59.988 39.5417 60.2354 39.5417H65.4081C65.6555 39.5417 65.856 39.7423 65.856 39.9897C65.856 40.2371 65.6555 40.4376 65.4081 40.4376H60.2354C59.988 40.4376 59.7875 40.2371 59.7875 39.9897Z" fill="#45499E"/>
<path fill-rule="evenodd" clip-rule="evenodd" d="M60.9984 33.5232C60.9984 33.2759 61.199 33.0753 61.4463 33.0753H71.3876C71.635 33.0753 71.8355 33.2759 71.8355 33.5232C71.8355 33.7706 71.635 33.9712 71.3876 33.9712H61.4463C61.199 33.9712 60.9984 33.7706 60.9984 33.5232Z" fill="#45499E"/>
<path fill-rule="evenodd" clip-rule="evenodd" d="M81.2415 38.7097L81.2219 38.7031C81.0341 38.6395 80.7945 38.6438 80.5081 38.7189C80.2237 38.7934 79.9153 38.9321 79.606 39.1085C78.9871 39.4614 78.4019 39.9438 78.0552 40.2785L77.6568 39.8683C78.0286 39.5093 78.6514 38.9952 79.3211 38.6132C79.6562 38.4222 80.0123 38.2588 80.3615 38.1672C80.7087 38.0762 81.0718 38.0503 81.4047 38.163C82.0635 38.3861 82.7661 38.6199 83.5078 38.55C84.2284 38.4821 85.0249 38.1211 85.8455 37.059L86.299 37.4078C85.3981 38.5737 84.4659 39.0328 83.5629 39.1179C82.6899 39.2002 81.8814 38.9264 81.2415 38.7097Z" fill="#DA9610"/>
<path fill-rule="evenodd" clip-rule="evenodd" d="M37.8196 2.13071C37.8207 2.12423 37.8218 2.11779 37.8229 2.11139C37.8371 2.02884 37.8203 1.91439 37.7521 1.76462C37.6847 1.61691 37.5773 1.45698 37.4439 1.29558C37.177 0.972644 36.8352 0.678245 36.6041 0.508493L36.9456 0.0436405C37.2046 0.23388 37.5841 0.559877 37.8885 0.928156C38.0407 1.11238 38.1813 1.31576 38.2769 1.52537C38.3715 1.73293 38.4324 1.96981 38.3914 2.2089C38.321 2.61935 38.2552 3.02673 38.3626 3.42646C38.4645 3.8059 38.7362 4.21843 39.4377 4.59409L39.1655 5.10256C38.3507 4.66628 37.9562 4.13678 37.8056 3.57614C37.6627 3.04458 37.7524 2.52232 37.8196 2.13071Z" fill="#DA9610"/>
<path d="M16.0276 8.54104L16.0879 10.699L17.7654 12.0578L15.6074 12.1182L14.2486 13.7957L14.1882 11.6377L12.5108 10.2789L14.6687 10.2185L16.0276 8.54104Z" fill="#50BE2A"/>
<path d="M68.8606 58.641L68.9109 60.4392L70.3087 61.5716L68.5105 61.6219L67.3781 63.0198L67.3278 61.2215L65.9299 60.0891L67.7282 60.0388L68.8606 58.641Z" fill="#DA9610"/>
<path d="M64.0084 10.5377L66.0574 8.88452L67.7106 10.9335L65.6616 12.5867L64.0084 10.5377Z" fill="#3C3F8F"/>
<path d="M0.924805 40.4069L2.97377 38.7537L4.62697 40.8026L2.57801 42.4558L0.924805 40.4069Z" fill="#242AAA"/>
</svg>
