<svg width="161" height="31" viewBox="0 0 161 31" fill="none" xmlns="http://www.w3.org/2000/svg">
<path d="M0 3.90083C0 1.74646 1.91965 0 4.28765 0H29.7864C32.1544 0 34.074 1.74646 34.074 3.90083V27.0992C34.074 29.2535 32.1544 31 29.7864 31H4.28765C1.91965 31 0 29.2535 0 27.0992V3.90083Z" fill="#6E58F1"/>
<path d="M4.9209 13.1125C4.9209 10.4385 7.29447 8.27081 10.2224 8.27081H10.5273C11.7659 8.27081 12.7699 9.18777 12.7699 10.3189V15.9062C12.7699 17.0373 11.7659 17.9542 10.5273 17.9542H10.2224C7.29447 17.9542 4.9209 15.7865 4.9209 13.1125Z" fill="white"/>
<path d="M13.9727 9.12576C13.9727 8.60647 14.3066 8.13561 14.8255 7.92329L22.543 4.76536C23.4975 4.37478 24.5757 5.01259 24.5757 5.96783V20.3617C24.5757 21.3231 23.4848 21.9608 22.5289 21.5583L14.8114 18.3088C14.3001 18.0936 13.9727 17.6264 13.9727 17.1122V16.4459C13.9727 15.8977 14.3443 15.4067 14.9059 15.2131L19.2074 13.7304C19.8296 13.5159 19.8296 12.7121 19.2074 12.4976L14.9059 11.0148C14.3443 10.8212 13.9727 10.3303 13.9727 9.78208V9.12576Z" fill="white"/>
<path d="M29.1518 14.2656V13.9722C29.1518 12.3515 27.7132 11.0378 25.9387 11.0378C25.85 11.0378 25.7781 11.1035 25.7781 11.1845V17.0532C25.7781 17.1343 25.85 17.2 25.9387 17.2C27.7132 17.2 29.1518 15.8862 29.1518 14.2656Z" fill="white"/>
<path d="M10.2124 19.8287C10.2124 19.5406 10.4681 19.3071 10.7836 19.3071H13.7723C14.0877 19.3071 14.3435 19.5406 14.3435 19.8287V24.4632C14.3435 25.505 13.4187 26.3496 12.2779 26.3496L-nan -nanL12.2779 26.3496C11.1372 26.3496 10.2124 25.505 10.2124 24.4632V19.8287Z" fill="white"/>
<path d="M50.3382 16.2693C51.7579 16.414 52.5466 17.0835 52.5466 18.1691C52.5466 19.0376 51.7579 19.7794 50.7523 19.7794C49.8847 19.7794 49.1946 19.5804 48.5241 18.8024L46.0002 20.5032C47.4002 21.9144 49.0763 22.4753 50.7523 22.4753C53.3353 22.4753 55.7212 20.5936 55.7212 17.9701C55.7212 15.3646 53.6508 13.8086 51.1466 13.6639C49.5889 13.5734 49.096 13.0125 49.096 12.3973C49.096 11.6555 49.6481 11.2032 50.4565 11.2032C50.9692 11.2032 51.6199 11.4926 52.0142 11.8726L54.4198 10.2623C53.2959 9.03194 51.9156 8.52533 50.4565 8.52533C48.4256 8.52533 46.1383 10.1356 46.1383 12.4154C46.1383 14.5323 47.7946 15.9979 50.3382 16.2693Z" fill="white"/>
<path d="M67.0722 17.6806C67.0722 16.4683 67.9989 15.4732 69.2214 15.4732C70.3454 15.4732 71.2721 16.2874 71.2721 17.6806V22.2401H74.0523V17.6806C74.0523 15.0389 72.5735 12.9039 69.5172 12.9039C68.4919 12.9039 66.9144 13.1934 65.968 14.3514C65.3764 13.5191 64.0553 12.9039 62.5962 12.9039C61.7286 12.9039 60.6047 13.2296 60.1512 13.7362V13.103H57.3512V22.2401H60.1512V17.6806C60.1512 16.4683 61.0779 15.4732 62.123 15.4732C63.3849 15.4732 64.2722 16.1065 64.2722 17.6806V22.2401H67.0722V17.6806Z" fill="white"/>
<path d="M82.7959 13.103V13.7362C82.3621 13.302 81.2579 12.9039 80.3706 12.9039C77.7086 12.9039 75.4805 15.0389 75.4805 17.6806C75.4805 20.286 77.6495 22.4391 80.3706 22.4391C81.2776 22.4391 82.3621 22.1135 82.7959 21.5888V22.2401H85.5959V13.103H82.7959ZM80.6466 19.888C79.365 19.888 78.3199 18.9833 78.3199 17.6806C78.3199 16.396 79.365 15.4732 80.6466 15.4732C81.948 15.4732 82.9142 16.396 82.9142 17.6806C82.9142 18.9833 81.948 19.888 80.6466 19.888Z" fill="white"/>
<path d="M93.2622 12.9401C93.0058 12.9039 92.8086 12.9039 92.572 12.9039C91.803 12.9039 90.9749 13.1391 90.3636 13.7362V13.103H87.5636V22.2401H90.3636V17.6806C90.3636 16.215 91.2904 15.4732 92.3748 15.4732C92.6903 15.4732 92.9861 15.5094 93.2622 15.5998V12.9401Z" fill="white"/>
<path d="M100.332 15.4732V13.103H97.9661V10.0452L95.1662 11.9088V13.103H93.6676V15.4732H95.1662V18.4586C95.1662 20.8288 97.2957 22.4391 100.273 22.4391V19.888C98.9915 19.888 97.9661 19.4175 97.9661 18.3862V15.4732H100.332Z" fill="white"/>
<path d="M101.62 8.76054V22.2401H104.42V8.76054H101.62Z" fill="white"/>
<path d="M113.534 18.9652C113.08 19.6166 112.232 19.888 111.385 19.888C111.089 19.888 110.813 19.8699 110.556 19.7794L116.117 16.1246C115.506 14.4238 113.613 12.9039 111.148 12.9039C108.289 12.9039 105.982 15.0389 105.982 17.6806C105.982 20.286 108.387 22.4391 111.385 22.4391C113.159 22.4391 114.914 21.6973 115.762 20.5393L113.534 18.9652ZM108.821 17.6806C108.821 16.396 109.866 15.4732 111.148 15.4732C111.68 15.4732 112.134 15.636 112.528 15.9074L108.9 18.2777C108.841 18.0967 108.821 17.8977 108.821 17.6806Z" fill="white"/>
<path d="M124.427 13.103V13.7362C123.993 13.302 122.889 12.9039 122.002 12.9039C119.34 12.9039 117.112 15.0389 117.112 17.6806C117.112 20.286 119.281 22.4391 122.002 22.4391C122.909 22.4391 123.993 22.1135 124.427 21.5888V22.2401H127.227V13.103H124.427ZM122.278 19.888C120.996 19.888 119.951 18.9833 119.951 17.6806C119.951 16.396 120.996 15.4732 122.278 15.4732C123.579 15.4732 124.545 16.396 124.545 17.6806C124.545 18.9833 123.579 19.888 122.278 19.888Z" fill="white"/>
<path d="M136.096 8.76054V13.7362C135.662 13.302 134.558 12.9039 133.671 12.9039C131.009 12.9039 128.781 15.0389 128.781 17.6806C128.781 20.286 130.95 22.4391 133.671 22.4391C134.578 22.4391 135.662 22.1135 136.096 21.5888V22.2401H138.896V8.76054H136.096ZM133.947 19.888C132.665 19.888 131.62 18.9833 131.62 17.6806C131.62 16.396 132.665 15.4732 133.947 15.4732C135.248 15.4732 136.214 16.396 136.214 17.6806C136.214 18.9833 135.248 19.888 133.947 19.888Z" fill="white"/>
<path d="M142.579 19.707C141.672 19.707 141.061 20.3222 141.061 21.1002C141.061 21.8421 141.672 22.4753 142.579 22.4753C143.506 22.4753 144.098 21.8421 144.098 21.1002C144.098 20.3222 143.486 19.707 142.579 19.707Z" fill="white"/>
<path d="M153.176 13.103V13.7362C152.742 13.302 151.638 12.9039 150.751 12.9039C148.089 12.9039 145.861 15.0389 145.861 17.6806C145.861 20.286 148.03 22.4391 150.751 22.4391C151.658 22.4391 152.742 22.1135 153.176 21.5888V22.2401H155.976V13.103H153.176ZM151.027 19.888C149.745 19.888 148.7 18.9833 148.7 17.6806C148.7 16.396 149.745 15.4732 151.027 15.4732C152.328 15.4732 153.294 16.396 153.294 17.6806C153.294 18.9833 152.328 19.888 151.027 19.888Z" fill="white"/>
<path d="M159.324 11.4926C160.271 11.4926 161 10.8232 161 10.0271C161 9.28525 160.271 8.6158 159.324 8.6158C158.457 8.6158 157.707 9.30334 157.707 10.0271C157.707 10.8232 158.457 11.4926 159.324 11.4926ZM160.744 13.103H157.944V22.2401H160.744V13.103Z" fill="white"/>
</svg>
