<svg width="171" height="30" viewBox="0 0 171 30" fill="none" xmlns="http://www.w3.org/2000/svg">
<rect width="171" height="30" rx="15" fill="white" fill-opacity="0.2"/>
<path d="M20.97 7.96973L22.8688 13.1012L28.0003 15L22.8688 16.8988L20.97 22.0303L19.0712 16.8988L13.9397 15L19.0712 13.1012L20.97 7.96973Z" fill="#757AE9"/>
<path d="M14.6667 7L15.3869 8.94642L17.3333 9.66667L15.3869 10.3869L14.6667 12.3333L13.9464 10.3869L12 9.66667L13.9464 8.94642L14.6667 7Z" fill="#757AE9"/>
<path d="M14.6667 17.6667L15.3869 19.6131L17.3333 20.3334L15.3869 21.0536L14.6667 23L13.9464 21.0536L12 20.3334L13.9464 19.6131L14.6667 17.6667Z" fill="#757AE9"/>
<path opacity="0.8" d="M39.8563 19V11.428H37.3483V10.6H43.3723V11.428H40.8643V19H39.8563ZM43.8635 19V13.048H44.7755L44.8595 14.188C45.0435 13.796 45.3235 13.484 45.6995 13.252C46.0755 13.02 46.5395 12.904 47.0915 12.904V13.96H46.8155C46.4635 13.96 46.1395 14.024 45.8435 14.152C45.5475 14.272 45.3115 14.48 45.1355 14.776C44.9595 15.072 44.8715 15.48 44.8715 16V19H43.8635ZM50.2028 19.144C49.7068 19.144 49.2948 19.06 48.9668 18.892C48.6388 18.724 48.3948 18.5 48.2348 18.22C48.0748 17.94 47.9948 17.636 47.9948 17.308C47.9948 16.7 48.2268 16.232 48.6908 15.904C49.1548 15.576 49.7868 15.412 50.5868 15.412H52.1948V15.34C52.1948 14.82 52.0588 14.428 51.7868 14.164C51.5148 13.892 51.1508 13.756 50.6948 13.756C50.3028 13.756 49.9628 13.856 49.6748 14.056C49.3948 14.248 49.2188 14.532 49.1468 14.908H48.1148C48.1548 14.476 48.2988 14.112 48.5468 13.816C48.8028 13.52 49.1188 13.296 49.4948 13.144C49.8708 12.984 50.2708 12.904 50.6948 12.904C51.5268 12.904 52.1508 13.128 52.5668 13.576C52.9908 14.016 53.2028 14.604 53.2028 15.34V19H52.3028L52.2428 17.932C52.0748 18.268 51.8268 18.556 51.4988 18.796C51.1788 19.028 50.7468 19.144 50.2028 19.144ZM50.3588 18.292C50.7428 18.292 51.0708 18.192 51.3428 17.992C51.6228 17.792 51.8348 17.532 51.9788 17.212C52.1228 16.892 52.1948 16.556 52.1948 16.204V16.192H50.6708C50.0788 16.192 49.6588 16.296 49.4108 16.504C49.1708 16.704 49.0508 16.956 49.0508 17.26C49.0508 17.572 49.1628 17.824 49.3868 18.016C49.6188 18.2 49.9428 18.292 50.3588 18.292ZM55.327 11.728C55.127 11.728 54.959 11.664 54.823 11.536C54.695 11.4 54.631 11.232 54.631 11.032C54.631 10.84 54.695 10.68 54.823 10.552C54.959 10.424 55.127 10.36 55.327 10.36C55.519 10.36 55.683 10.424 55.819 10.552C55.955 10.68 56.023 10.84 56.023 11.032C56.023 11.232 55.955 11.4 55.819 11.536C55.683 11.664 55.519 11.728 55.327 11.728ZM54.823 19V13.048H55.831V19H54.823ZM57.5861 19V10.36H58.5941V19H57.5861ZM66.0981 19.144C65.5301 19.144 65.0261 19.016 64.5861 18.76C64.1461 18.496 63.7981 18.132 63.5421 17.668C63.2941 17.204 63.1701 16.656 63.1701 16.024C63.1701 15.4 63.2941 14.856 63.5421 14.392C63.7901 13.92 64.1341 13.556 64.5741 13.3C65.0221 13.036 65.5381 12.904 66.1221 12.904C66.6981 12.904 67.1941 13.036 67.6101 13.3C68.0341 13.556 68.3581 13.896 68.5821 14.32C68.8061 14.744 68.9181 15.2 68.9181 15.688C68.9181 15.776 68.9141 15.864 68.9061 15.952C68.9061 16.04 68.9061 16.14 68.9061 16.252H64.1661C64.1901 16.708 64.2941 17.088 64.4781 17.392C64.6701 17.688 64.9061 17.912 65.1861 18.064C65.4741 18.216 65.7781 18.292 66.0981 18.292C66.5141 18.292 66.8621 18.196 67.1421 18.004C67.4221 17.812 67.6261 17.552 67.7541 17.224H68.7501C68.5901 17.776 68.2821 18.236 67.8261 18.604C67.3781 18.964 66.8021 19.144 66.0981 19.144ZM66.0981 13.756C65.6181 13.756 65.1901 13.904 64.8141 14.2C64.4461 14.488 64.2341 14.912 64.1781 15.472H67.9221C67.8981 14.936 67.7141 14.516 67.3701 14.212C67.0261 13.908 66.6021 13.756 66.0981 13.756ZM69.3728 19L71.4368 16.024L69.3728 13.048H70.4648L72.1328 15.508L73.8128 13.048H74.8928L72.8288 16.024L74.8928 19H73.8128L72.1328 16.54L70.4648 19H69.3728ZM75.9494 21.64V13.048H76.8614L76.9574 14.032C77.1494 13.744 77.4214 13.484 77.7734 13.252C78.1334 13.02 78.5894 12.904 79.1414 12.904C79.7334 12.904 80.2494 13.04 80.6894 13.312C81.1294 13.584 81.4694 13.956 81.7094 14.428C81.9574 14.9 82.0814 15.436 82.0814 16.036C82.0814 16.636 81.9574 17.172 81.7094 17.644C81.4694 18.108 81.1254 18.476 80.6774 18.748C80.2374 19.012 79.7214 19.144 79.1294 19.144C78.6414 19.144 78.2054 19.044 77.8214 18.844C77.4454 18.644 77.1574 18.364 76.9574 18.004V21.64H75.9494ZM79.0214 18.268C79.4214 18.268 79.7734 18.176 80.0774 17.992C80.3814 17.8 80.6214 17.536 80.7974 17.2C80.9734 16.864 81.0614 16.472 81.0614 16.024C81.0614 15.576 80.9734 15.184 80.7974 14.848C80.6214 14.512 80.3814 14.252 80.0774 14.068C79.7734 13.876 79.4214 13.78 79.0214 13.78C78.6214 13.78 78.2694 13.876 77.9654 14.068C77.6614 14.252 77.4214 14.512 77.2454 14.848C77.0694 15.184 76.9814 15.576 76.9814 16.024C76.9814 16.472 77.0694 16.864 77.2454 17.2C77.4214 17.536 77.6614 17.8 77.9654 17.992C78.2694 18.176 78.6214 18.268 79.0214 18.268ZM84.0966 11.728C83.8966 11.728 83.7286 11.664 83.5926 11.536C83.4646 11.4 83.4006 11.232 83.4006 11.032C83.4006 10.84 83.4646 10.68 83.5926 10.552C83.7286 10.424 83.8966 10.36 84.0966 10.36C84.2886 10.36 84.4526 10.424 84.5886 10.552C84.7246 10.68 84.7926 10.84 84.7926 11.032C84.7926 11.232 84.7246 11.4 84.5886 11.536C84.4526 11.664 84.2886 11.728 84.0966 11.728ZM83.5926 19V13.048H84.6006V19H83.5926ZM86.3556 19V13.048H87.2676L87.3516 14.188C87.5356 13.796 87.8156 13.484 88.1916 13.252C88.5676 13.02 89.0316 12.904 89.5836 12.904V13.96H89.3076C88.9556 13.96 88.6316 14.024 88.3356 14.152C88.0396 14.272 87.8036 14.48 87.6276 14.776C87.4516 15.072 87.3636 15.48 87.3636 16V19H86.3556ZM93.1684 19.144C92.6004 19.144 92.0964 19.016 91.6564 18.76C91.2164 18.496 90.8684 18.132 90.6124 17.668C90.3644 17.204 90.2404 16.656 90.2404 16.024C90.2404 15.4 90.3644 14.856 90.6124 14.392C90.8604 13.92 91.2044 13.556 91.6444 13.3C92.0924 13.036 92.6084 12.904 93.1924 12.904C93.7684 12.904 94.2644 13.036 94.6804 13.3C95.1044 13.556 95.4284 13.896 95.6524 14.32C95.8764 14.744 95.9884 15.2 95.9884 15.688C95.9884 15.776 95.9844 15.864 95.9764 15.952C95.9764 16.04 95.9764 16.14 95.9764 16.252H91.2364C91.2604 16.708 91.3644 17.088 91.5484 17.392C91.7404 17.688 91.9764 17.912 92.2564 18.064C92.5444 18.216 92.8484 18.292 93.1684 18.292C93.5844 18.292 93.9324 18.196 94.2124 18.004C94.4924 17.812 94.6964 17.552 94.8244 17.224H95.8204C95.6604 17.776 95.3524 18.236 94.8964 18.604C94.4484 18.964 93.8724 19.144 93.1684 19.144ZM93.1684 13.756C92.6884 13.756 92.2604 13.904 91.8844 14.2C91.5164 14.488 91.3044 14.912 91.2484 15.472H94.9924C94.9684 14.936 94.7844 14.516 94.4404 14.212C94.0964 13.908 93.6724 13.756 93.1684 13.756ZM99.6044 19.144C98.8924 19.144 98.3004 18.964 97.8284 18.604C97.3564 18.244 97.0804 17.756 97.0004 17.14H98.0324C98.0964 17.452 98.2604 17.724 98.5244 17.956C98.7964 18.18 99.1604 18.292 99.6164 18.292C100.04 18.292 100.352 18.204 100.552 18.028C100.752 17.844 100.852 17.628 100.852 17.38C100.852 17.02 100.72 16.78 100.456 16.66C100.2 16.54 99.8364 16.432 99.3644 16.336C99.0444 16.272 98.7244 16.18 98.4044 16.06C98.0844 15.94 97.8164 15.772 97.6004 15.556C97.3844 15.332 97.2764 15.04 97.2764 14.68C97.2764 14.16 97.4684 13.736 97.8524 13.408C98.2444 13.072 98.7724 12.904 99.4364 12.904C100.068 12.904 100.584 13.064 100.984 13.384C101.392 13.696 101.628 14.144 101.692 14.728H100.696C100.656 14.424 100.524 14.188 100.3 14.02C100.084 13.844 99.7924 13.756 99.4244 13.756C99.0644 13.756 98.7844 13.832 98.5844 13.984C98.3924 14.136 98.2964 14.336 98.2964 14.584C98.2964 14.824 98.4204 15.012 98.6684 15.148C98.9244 15.284 99.2684 15.4 99.7004 15.496C100.068 15.576 100.416 15.676 100.744 15.796C101.08 15.908 101.352 16.08 101.56 16.312C101.776 16.536 101.884 16.864 101.884 17.296C101.892 17.832 101.688 18.276 101.272 18.628C100.864 18.972 100.308 19.144 99.6044 19.144ZM107.112 11.728C106.912 11.728 106.744 11.664 106.608 11.536C106.48 11.4 106.416 11.232 106.416 11.032C106.416 10.84 106.48 10.68 106.608 10.552C106.744 10.424 106.912 10.36 107.112 10.36C107.304 10.36 107.468 10.424 107.604 10.552C107.74 10.68 107.808 10.84 107.808 11.032C107.808 11.232 107.74 11.4 107.604 11.536C107.468 11.664 107.304 11.728 107.112 11.728ZM106.608 19V13.048H107.616V19H106.608ZM109.371 19V13.048H110.283L110.343 14.116C110.535 13.74 110.811 13.444 111.171 13.228C111.531 13.012 111.939 12.904 112.395 12.904C113.099 12.904 113.659 13.12 114.075 13.552C114.499 13.976 114.711 14.632 114.711 15.52V19H113.703V15.628C113.703 14.388 113.191 13.768 112.167 13.768C111.655 13.768 111.227 13.956 110.883 14.332C110.547 14.7 110.379 15.228 110.379 15.916V19H109.371ZM120.302 19V11.728L118.946 12.028V11.332L120.638 10.6H121.322V19H120.302ZM122.963 19V18.292C123.531 17.844 124.067 17.392 124.571 16.936C125.083 16.472 125.535 16.016 125.927 15.568C126.327 15.12 126.639 14.68 126.863 14.248C127.095 13.816 127.211 13.4 127.211 13C127.211 12.704 127.159 12.428 127.055 12.172C126.959 11.916 126.799 11.712 126.575 11.56C126.351 11.4 126.047 11.32 125.663 11.32C125.295 11.32 124.987 11.404 124.739 11.572C124.491 11.732 124.303 11.948 124.175 12.22C124.055 12.492 123.995 12.784 123.995 13.096H123.023C123.023 12.544 123.139 12.072 123.371 11.68C123.603 11.28 123.919 10.976 124.319 10.768C124.719 10.56 125.171 10.456 125.675 10.456C126.419 10.456 127.027 10.668 127.499 11.092C127.979 11.508 128.219 12.132 128.219 12.964C128.219 13.46 128.095 13.952 127.847 14.44C127.599 14.92 127.283 15.388 126.899 15.844C126.515 16.292 126.103 16.712 125.663 17.104C125.231 17.496 124.827 17.848 124.451 18.16H128.507V19H122.963ZM135.778 19.144C135.186 19.144 134.666 19.008 134.218 18.736C133.778 18.464 133.434 18.092 133.186 17.62C132.946 17.148 132.826 16.612 132.826 16.012C132.826 15.412 132.95 14.88 133.198 14.416C133.446 13.944 133.79 13.576 134.23 13.312C134.67 13.04 135.19 12.904 135.79 12.904C136.278 12.904 136.71 13.004 137.086 13.204C137.462 13.404 137.754 13.684 137.962 14.044V10.36H138.97V19H138.058L137.962 18.016C137.77 18.304 137.494 18.564 137.134 18.796C136.774 19.028 136.322 19.144 135.778 19.144ZM135.886 18.268C136.286 18.268 136.638 18.176 136.942 17.992C137.254 17.8 137.494 17.536 137.662 17.2C137.838 16.864 137.926 16.472 137.926 16.024C137.926 15.576 137.838 15.184 137.662 14.848C137.494 14.512 137.254 14.252 136.942 14.068C136.638 13.876 136.286 13.78 135.886 13.78C135.494 13.78 135.142 13.876 134.83 14.068C134.526 14.252 134.286 14.512 134.11 14.848C133.942 15.184 133.858 15.576 133.858 16.024C133.858 16.472 133.942 16.864 134.11 17.2C134.286 17.536 134.526 17.8 134.83 17.992C135.142 18.176 135.494 18.268 135.886 18.268ZM142.593 19.144C142.097 19.144 141.685 19.06 141.357 18.892C141.029 18.724 140.785 18.5 140.625 18.22C140.465 17.94 140.385 17.636 140.385 17.308C140.385 16.7 140.617 16.232 141.081 15.904C141.545 15.576 142.177 15.412 142.977 15.412H144.585V15.34C144.585 14.82 144.449 14.428 144.177 14.164C143.905 13.892 143.541 13.756 143.085 13.756C142.693 13.756 142.353 13.856 142.065 14.056C141.785 14.248 141.609 14.532 141.537 14.908H140.505C140.545 14.476 140.689 14.112 140.937 13.816C141.193 13.52 141.509 13.296 141.885 13.144C142.261 12.984 142.661 12.904 143.085 12.904C143.917 12.904 144.541 13.128 144.957 13.576C145.381 14.016 145.593 14.604 145.593 15.34V19H144.693L144.633 17.932C144.465 18.268 144.217 18.556 143.889 18.796C143.569 19.028 143.137 19.144 142.593 19.144ZM142.749 18.292C143.133 18.292 143.461 18.192 143.733 17.992C144.013 17.792 144.225 17.532 144.369 17.212C144.513 16.892 144.585 16.556 144.585 16.204V16.192H143.061C142.469 16.192 142.049 16.296 141.801 16.504C141.561 16.704 141.441 16.956 141.441 17.26C141.441 17.572 141.553 17.824 141.777 18.016C142.009 18.2 142.333 18.292 142.749 18.292ZM147.578 21.64L149.054 18.424H148.706L146.342 13.048H147.434L149.402 17.68L151.49 13.048H152.534L148.634 21.64H147.578ZM155.526 19.144C154.814 19.144 154.222 18.964 153.75 18.604C153.278 18.244 153.002 17.756 152.922 17.14H153.954C154.018 17.452 154.182 17.724 154.446 17.956C154.718 18.18 155.082 18.292 155.538 18.292C155.962 18.292 156.274 18.204 156.474 18.028C156.674 17.844 156.774 17.628 156.774 17.38C156.774 17.02 156.642 16.78 156.378 16.66C156.122 16.54 155.758 16.432 155.286 16.336C154.966 16.272 154.646 16.18 154.326 16.06C154.006 15.94 153.738 15.772 153.522 15.556C153.306 15.332 153.198 15.04 153.198 14.68C153.198 14.16 153.39 13.736 153.774 13.408C154.166 13.072 154.694 12.904 155.358 12.904C155.99 12.904 156.506 13.064 156.906 13.384C157.314 13.696 157.55 14.144 157.614 14.728H156.618C156.578 14.424 156.446 14.188 156.222 14.02C156.006 13.844 155.714 13.756 155.346 13.756C154.986 13.756 154.706 13.832 154.506 13.984C154.314 14.136 154.218 14.336 154.218 14.584C154.218 14.824 154.342 15.012 154.59 15.148C154.846 15.284 155.19 15.4 155.622 15.496C155.99 15.576 156.338 15.676 156.666 15.796C157.002 15.908 157.274 16.08 157.482 16.312C157.698 16.536 157.806 16.864 157.806 17.296C157.814 17.832 157.61 18.276 157.194 18.628C156.786 18.972 156.23 19.144 155.526 19.144Z" fill="white"/>
</svg>
